# xmcd CD database file
# Copyright (C) 1993-1998 Ti Kan
# 
# Track frame offsets:
#     182
#     15577
#     33117
#     48282
#     60572
#     73712
#     86597
#     95577
#     108972
#     122650
#     138895
#     150810
#     162632
#     177387
#     186685
#     199995
#     213420
#     241132
#     254582
#     270007
#     282620
# 
# Disc length: 3944 seconds
# 
# Revision: 2
# Processed by: cddbd v1.4PL0 Copyright (c) Steve Scherf et al.
# Submitted via: Gronk 1.4
# 
DISCID=280f6615
DTITLE=Lonnie Johnson - Tomorrow Night
DYEAR=1900
DGENRE=blues
TTITLE0=You Will Need Me
TTITLE1=I Don't Hurt Anymore
TTITLE2=She's Drunks Again
TTITLE3=Nothing But I Trouble
TTITLE4=She Devil
TTITLE5=Little Rocking Chair
TTITLE6=Trouble Ain't Nothing But The Blues
TTITLE7=Leave Me Or Love Me
TTITLE8=Tomorrow Night
TTITLE9=Blues 'Round My Door
TTITLE10=Working Man's Blues
TTITLE11=Jelly Roll Baker
TTITLE12=End It All
TTITLE13=Blues Stay Away From Me
TTITLE14=Careless Love
TTITLE15=C. C. Rider
TTITLE16=Clementine Blues
TTITLE17=Backwater Blues
TTITLE18=Jelly Jelly
TTITLE19=Love Is The Answer
TTITLE20=Keep What You Got
EXTD=
EXTT0=
EXTT1=
EXTT2=
EXTT3=
EXTT4=
EXTT5=
EXTT6=
EXTT7=
EXTT8=
EXTT9=
EXTT10=
EXTT11=
EXTT12=
EXTT13=
EXTT14=
EXTT15=
EXTT16=
EXTT17=
EXTT18=
EXTT19=
EXTT20=
PLAYORDER=
